<?xml version="1.0" encoding="UTF-8" standalone="no"?>
<svg id="svg5066" xmlns:rdf="http://www.w3.org/1999/02/22-rdf-syntax-ns#" xmlns="http://www.w3.org/2000/svg" height="26" width="117" version="1.1" xmlns:cc="http://creativecommons.org/ns#" xmlns:dc="http://purl.org/dc/elements/1.1/" viewBox="0 0 117 26">
<g id="layer1" transform="translate(0 -1026.4)">
<g id="g5025" transform="translate(-535.48 670.3)">
<path id="path4184" d="m535.48 382.06h25.432v-25.13h-25.432v25.13zm2.7688-22.391h19.894v8.06h-11.098v11.596h-8.7962v-19.656zm11.56 10.799h8.335v8.8575h-8.335v-8.8575z" fill="#231f20"/>
<g id="g4186" transform="matrix(1.25 0 0 -1.25 580.37 367.34)">
<path id="path4188" d="m0 0c0 2.256-1.67 3.363-3.693 3.363h-4.988v-10.605h2.14v3.823h2.159l1.916-3.823h2.466l-2.054 4.123c1.364 0.528 2.054 1.529 2.054 3.119m-3.736-1.422h-2.805v2.726h2.805c0.946 0 1.532-0.397 1.532-1.348 0-0.924-0.541-1.378-1.532-1.378" fill="#231f20"/>
</g>
<g id="g4190" transform="matrix(1.25 0 0 -1.25 582.52 376.39)">
<path id="path4192" d="m0 0v10.605h7.446v-2.077h-5.3v-1.833h3.077v-2.058h-3.077v-2.561h5.525v-2.076h-7.671z" fill="#231f20"/>
</g>
<g id="g4194" transform="matrix(1.25 0 0 -1.25 594.29 376.39)">
<path id="path4196" d="m0 0v10.605h2.145v-8.513h5.371v-2.092h-7.516z" fill="#231f20"/>
</g>
<g id="g4198" transform="matrix(1.25 0 0 -1.25 613.31 363.13)">
<path id="path4200" d="m0 0h-2.082l-4.102-10.605h2.295l0.842 2.363h3.918l0.848-2.363h2.353l-4.072 10.605zm-2.311-6.226 0.688 1.924c0.219 0.62 0.43 1.256 0.533 1.654 0.108-0.398 0.324-1.034 0.541-1.654l0.692-1.924h-2.454z" fill="#231f20"/>
</g>
<g id="g4202" transform="matrix(1.25 0 0 -1.25 624.07 365.75)">
<path id="path4204" d="m0 0v-8.513h-2.143v8.513h-3.08v2.092h8.295v-2.092h-3.072z" fill="#231f20"/>
</g>
<g id="g4206" transform="matrix(1.25 0 0 -1.25 629.83 376.39)">
<path id="path4208" d="m0 0v10.605h7.447v-2.077h-5.301v-1.833h3.079v-2.058h-3.079v-2.561h5.528v-2.076h-7.674z" fill="#231f20"/>
</g>
<g id="g4210" transform="matrix(1.25 0 0 -1.25 645.8 363.13)">
<path id="path4212" d="m0 0h-3.352v-10.605h3.202c2.754 0 5.48 1.572 5.48 5.302 0 3.88-2.269 5.303-5.33 5.303m-0.15-8.546h-1.057v6.487h1.131c2.265 0 3.201-1.076 3.201-3.244 0-1.941-1.025-3.243-3.275-3.243" fill="#231f20"/>
</g>
</g>
</g>
</svg>
